<svg width="30" height="30" viewBox="0 0 30 30" fill="none" xmlns="http://www.w3.org/2000/svg">
<g clip-path="url(#clip0_577_488)">
<path d="M5.68184 19.9005V9.65077L2.68623 6.74269L0 5.12891V18.0917C0 19.0925 0.76416 19.9005 1.70459 19.9005H5.68184Z" fill="#4285F4"/>
<path d="M19.3164 19.9004H23.2937C24.2369 19.9004 24.9982 19.0894 24.9982 18.0916V5.12891L21.9557 6.9773L19.3164 9.65067V19.9004Z" fill="#34A853"/>
<path d="M5.68105 9.65043L5.27344 5.64556L5.68105 1.8125L12.4992 7.23882L19.3174 1.8125L19.7733 5.43861L19.3174 9.65043L12.4992 15.0767L5.68105 9.65043Z" fill="#EA4335"/>
<path d="M19.3164 1.81385V9.65178L24.9982 5.12992V2.71821C24.9982 0.481419 22.592 -0.793711 20.9074 0.54774L19.3164 1.81385Z" fill="#FBBC04"/>
<path d="M0 5.12996L2.61318 7.20976L5.68184 9.65183V1.8139L4.09082 0.547787C2.40332 -0.793767 0 0.481466 0 2.71815V5.12986V5.12996Z" fill="#C5221F"/>
</g>
<defs>
<clipPath id="clip0_577_488">
<rect width="25" height="20" fill="white"/>
</clipPath>
</defs>
</svg>
